<svg xmlns="http://www.w3.org/2000/svg" width="50" height="50" viewBox="0 0 50 50">
  <path id="Subtração_2" data-name="Subtração 2" d="M1183,408a24.922,24.922,0,1,1,9.731-1.965A24.843,24.843,0,0,1,1183,408Zm-15.385-27.031a2.891,2.891,0,0,0-1.782,5.168l5.365,4.194a6.99,6.99,0,0,0,1.821,6.633,6.952,6.952,0,0,0,11.761-6.13l8.569-7.672a7.707,7.707,0,1,0-8.729-8.73l-7.043,10.674a6.913,6.913,0,0,0-2.751.723l-5.432-4.246A2.859,2.859,0,0,0,1167.615,380.969Zm10.32,15.714a4.639,4.639,0,0,1-4.634-4.634c0-.02,0-.04,0-.06v-.014l2.3,1.8a2.891,2.891,0,0,0,4.057-.5,2.894,2.894,0,0,0-.5-4.057l-2.184-1.708a4.71,4.71,0,0,1,.955-.1,4.635,4.635,0,1,1,0,9.269Zm14.314-15.645a5.505,5.505,0,1,1,5.505-5.505A5.512,5.512,0,0,1,1192.248,381.038Zm0-8.808a3.3,3.3,0,1,0,3.3,3.3A3.307,3.307,0,0,0,1192.248,372.23Z" transform="translate(-1157.999 -358)" fill="#fff"/>
</svg>
